<svg xmlns="http://www.w3.org/2000/svg" fill="none" viewBox="0 0 69 69">
  <defs/>
  <rect width="69" height="69" fill="#fff" rx="34.5"/>
  <g fill="#212121" stroke="#212121" stroke-linecap="round" stroke-linejoin="round" stroke-width=".949541" clip-path="url(#clip0)">
    <path d="M20.1241 59.0811c.552-.4128 1.116-.8059 1.6724-1.2085.7109-.5134 1.4231-1.0229 2.1339-1.5363.7761-.5609 1.5529-1.123 2.3328-1.6801.5971-.4279 1.1941-.8582 1.7908-1.2907.7634-.5533 1.5193-1.1104 2.2897-1.6617.5463-.3931 1.0983-.7793 1.6458-1.1711.4115-.295.8192-.5957 1.2306-.8958.1019-.0734.0291-.1646.0197-.238-.0431-.3241-.1058-.645-.1608-.9679-.0633-.369-.1266-.7375-.1899-1.1059-.0507-.3127-.0956-.6267-.1475-.9375-.0425-.2614-.0899-.521-.1361-.7811-.0463-.2602-.083-.5324-.1266-.7983-.0532-.3165-.1096-.6375-.1621-.9565-.043-.2576-.0836-.5159-.1266-.7736-.0544-.3266-.1108-.6539-.164-.9805-.0506-.3127-.0968-.6267-.1487-.9369-.0519-.3102-.1102-.621-.1621-.9331-.0437-.2684-.0823-.5374-.1266-.8058-.0502-.3081-.1008-.616-.1519-.9236-.045-.2615-.0899-.5223-.1361-.7837-.0561-.33-.1112-.6609-.1652-.9926-.0513-.3114-.0963-.6267-.1475-.9369-.0513-.3102-.1108-.6216-.1627-.9324-.0443-.2684-.0817-.533-.1266-.7989-.0519-.3165-.1064-.6267-.1595-.9451-.0431-.2615-.0855-.5229-.1266-.7856l-.1615-.9692c-.043-.2576-.0842-.5159-.1266-.7735-.0538-.3165-.1101-.6375-.162-.9565-.0437-.2741-.0823-.5482-.1266-.823-.0488-.3057-.102-.6077-.1513-.9115-.045-.2684-.0899-.5299-.1361-.7951-.0536-.3153-.1068-.6303-.1596-.9451-.0436-.2684-.0841-.5375-.1266-.8059-.0519-.3165-.1076-.6267-.1601-.9457-.0437-.2614-.0842-.5235-.1266-.785-.0538-.3234-.1095-.645-.1621-.9691-.043-.2615-.0778-.5248-.1266-.7856-.02-.2331-.0691-.4628-.1462-.6837-.0317.0374-.0228.0412-.0538.1019-.0119.0413-.0193.0838-.0222.1266-.143.6331-.2817 1.2731-.4241 1.9093-.0994.4475-.2038.8951-.3039 1.3432-.1164.5312-.2272 1.0635-.345 1.5959-.1063.4754-.2209.9495-.3266 1.4325-.1184.5312-.2273 1.0642-.3456 1.594-.1057.4773-.2203.9495-.326 1.4325-.1184.5305-.2279 1.0629-.3457 1.594-.0981.4431-.2038.8862-.3 1.3294-.1494.6741-.2938 1.3502-.4431 2.0257-.0899.4057-.19.8058-.2767 1.2147-.1171.5299-.2298 1.0623-.3475 1.5934-.0899.4045-.1899.8058-.2766 1.2141-.1172.5305-.2292 1.0629-.3476 1.5933-.0987.4476-.2038.8951-.3038 1.3433-.1159.5311-.2267 1.0635-.345 1.5959-.1076.4811-.2248.959-.3324 1.4401-.1266.5533-.2399 1.1091-.3627 1.6611-.1494.671-.3089 1.3433-.4526 2.0111-.1464.6917-.2971 1.3813-.452 2.0688-.1266.5697-.2532 1.1451-.3798 1.7161-.1513.6697-.2912 1.3433-.4374 2.0149-.0899.402-.1792.8059-.2684 1.2028-.1184.5311-.2336 1.0622-.352 1.592-.0844.3748-.1688.7483-.2532 1.1205-.0038.0001-.0075.0017-.0101.0044.0038.0026-.0292.0393.0171.0355zM37.3535 9.33716c.1853.0933.377.17347.5735.23992.6567.26502 1.3131.52882 1.9694.79132l2.089.8387.7229.2906c.0399.0158.0804.0582.1209 0 .0189-.0206.0293-.0475.0293-.0753 0-.0279-.0104-.0548-.0293-.0754l-.0342-.0342c-.2532-.2601-.5064-.5165-.7558-.7811-.2842-.3083-.571-.61785-.8685-.91601-.0279-.03038-.0469-.0633-.0722-.09685-.0326-.04848-.075-.08966-.1243-.12093-.0494-.03127-.1047-.05196-.1625-.06075h-3.4582zM41.7657 49.6578c.0342-.2285.0678-.4349.0988-.6412.0386-.2532.0785-.5014.1152-.7521.0367-.2506.0633-.4969.1019-.7438.0386-.2468.076-.4944.1127-.7412.0367-.2469.0677-.4723.1019-.7071.0443-.3089.0829-.6191.1361-.9274.0431-.2469.0677-.4957.1019-.7438.0342-.2482.076-.4932.1127-.74.0367-.2469.0677-.4723.1019-.7084.045-.3089.083-.6185.1361-.9267.0431-.2463.0678-.4963.1019-.7445.0342-.2481.0766-.4931.114-.74.0373-.2469.0677-.4722.1019-.7071.045-.3102.0829-.6197.1361-.928.0431-.2463.0677-.4963.1038-.7432.0361-.2469.076-.4944.1127-.7413.0367-.2468.0677-.4798.1019-.7159.0443-.3058.0893-.6115.138-.9166.0355-.2482.0633-.4963.1019-.7438.0387-.2476.076-.4932.1133-.7407.0374-.2475.0678-.4798.102-.7166.0342-.2367.0753-.4944.1107-.7412.0285-.1931.0526-.3881.0804-.5812.0368-.2475.076-.4931.1127-.7406.0279-.1899.0513-.3798.0798-.5697.0367-.2532.0759-.5014.1139-.7521.0342-.238.0678-.4716.1019-.7083.045-.3089.0823-.6185.1361-.9268.0431-.2424.0678-.488.102-.7318.0341-.2437.0772-.5019.1139-.7533.0367-.2513.0677-.4798.1019-.7159.0342-.2361.0754-.4931.1114-.7407.0279-.1899.0519-.3798.0798-.5697.0367-.2532.0772-.5013.1139-.7526.0279-.19.0507-.3799.0785-.5698.0279-.1899.0538-.3868.0899-.5773.0228-.1266.0133-.145-.1076-.1621-.3798-.0531-.7596-.1126-1.1363-.1658-.2595-.0342-.521-.0633-.7811-.0988-.2602-.0354-.5064-.081-.7597-.1171-.2532-.036-.5374-.0633-.8058-.0987-.2684-.0355-.5166-.0817-.7755-.1178-.2589-.036-.5292-.0633-.7931-.0987-.1976-.0266-.3932-.0633-.59-.0893-.1969-.0259-.4121-.0512-.6179-.0778-.2057-.0266-.395-.0551-.5931-.083-.1981-.0278-.4102-.0557-.6159-.0899-.2058-.0341-.409-.0588-.6153-.0892-.2064-.0304-.4109-.0538-.6172-.081l-.5926-.0798-.6267-.0899-.8058-.112c-.1969-.0266-.395-.0519-.5931-.0804-.2685-.0393-.5419-.0703-.8122-.1152-.2703-.045-.5286-.0633-.7926-.102-.1968-.0259-.3931-.0633-.5906-.0898-.1975-.0266-.3963-.052-.5931-.0785l-.823-.1146c-.1981-.0272-.3969-.05-.5944-.0779-.2684-.0367-.533-.0829-.8001-.1127-.1017-.0258-.207-.0343-.3115-.0253.095.2197.1899.4387.2849.6565.2566.5781.5136 1.1555.771 1.7319.1792.4001.3634.7976.5374 1.1984.2685.6089.5375 1.2204.8059 1.8294.1791.4039.3627.8058.5431 1.2097.3083.6963.6141 1.3882.9243 2.082.2095.471.4247.9395.633 1.4104.3021.6807.6007 1.3617.8957 2.0428.1792.4001.3627.797.5375 1.1971.3019.6792.5982 1.3622.9008 2.0427.1791.4134.3798.823.5614 1.2395.2684.609.5375 1.2205.8059 1.8295.1791.4.364.7969.5374 1.1977.2684.6089.5375 1.2204.8059 1.8294.1855.4178.3798.8337.5627 1.2534.2684.6052.5375 1.2135.8059 1.8187.1791.4039.3627.8058.5431 1.2097l.8065 1.8168c.1994.4374.4007.8812.6083 1.3521zM41.5054 49.6813l-.4862-1.0952-.7166-1.6269c-.1361-.3057-.2684-.6089-.4077-.9134-.2418-.5457-.4817-1.092-.7248-1.637-.1791-.3969-.3576-.7907-.5374-1.1889-.238-.5374-.4729-1.0761-.7134-1.6173-.1741-.3932-.3526-.7844-.5274-1.1775-.2388-.5431-.4777-1.0854-.7165-1.6269-.1361-.3057-.2684-.6083-.4077-.9121-.2418-.5464-.4817-1.0927-.7248-1.6377l-.5362-1.1901c-.238-.5374-.4729-1.0761-.7109-1.6117-.1747-.3937-.3539-.7849-.5286-1.1787l-.7159-1.6262c-.1361-.3058-.2716-.609-.4077-.9135-.2384-.5456-.4796-1.0913-.7235-1.637-.1267-.2878-.2533-.5746-.3799-.8603-.2354-.5273-.4754-1.0527-.7096-1.5825-.245-.5527-.4862-1.1066-.7305-1.6592-.1659-.376-.3349-.7508-.5014-1.1255-.2384-.5448-.4798-1.0907-.7241-1.6377-.0375-.0678-.0695-.1385-.0956-.2114-.0057-.019-.0102-.0677-.0462-.0544-.0197.0046-.0371.0164-.0487.0329-.0117.0166-.0169.0368-.0146.057.0422.2451.0844.4905.1266.7362.0455.269.0892.5298.1361.795.0519.3039.1019.6071.1525.911.0443.2684.0893.5298.1361.7951l.1532.9115.1361.7951c.0538.3165.1083.6267.1608.9451.0525.3184.1019.6071.1513.9116.0494.3045.1063.6267.1589.9331.0437.2614.0892.5241.1266.7855.0519.3058.1076.6134.1595.9211.0443.257.0899.5146.1266.7729.05.3058.0994.6077.1507.9122.0449.2684.0899.5292.1361.7945.0553.3186.1099.6374.1639.9565.05.3038.0975.6077.1488.9122.0513.3044.1095.6216.1614.933.0437.257.0842.516.1266.7736.049.3039.0994.6077.1513.9116.045.2684.0899.5292.1361.7944.0507.3058.1019.6077.1532.9116l.1361.795c.0523.3157.1055.631.1595.9458.0515.3038.1022.6077.152.9116.0498.3038.0998.6127.15.9267.0437.2684.0899.5298.1361.7951.0532.307.1076.614.1595.9217.0437.2614.0848.5229.1266.7849.0494.3001.0988.6001.1494.8958.045.2684.0899.5292.1387.7944.0544.3191.1084.6379.162.9565.0511.3043.1009.6084.1494.9122.0342.2076.0677.4165.1019.6267.0005.0133.0038.0263.0096.0382.0059.0119.0142.0224.0244.0308.0103.0084.0222.0146.035.0181.0128.0035.0262.0042.0393.0022.4988.0171.9976.0057 1.4939.0278.3798.0171.766-.0107 1.1464.0215.3805.0323.7508-.0069 1.123.0235.3938.0322.7894-.0064 1.1819.0253.3627.0285.7261-.0063 1.0869.0228.3994.0316.7976-.0045 1.1945.0259.2387.0089.4735-.0076.7274.0159zM43.9948 15.8105c-.3583.1158-.7109.2298-1.0629.3418l-2.2155.7058-1.6358.5191-2.2029.704-2.1814.6963-2.1144.6742c-.5452.1726-1.0904.346-1.6357.5203l-1.6459.5267c-.0158 0-.031.0063-.0297.0367l.4216.0589c.2684.0386.5431.0797.8147.1165.2057.0278.4134.0487.6191.0759.264.0361.5273.0772.7906.114.2058.0278.4134.0506.6191.0778.2608.0342.5204.0709.7812.1064l.6267.0899c.2608.0341.521.0677.7811.1038.202.0278.4033.0588.6046.0899.2798.0398.559.0804.8381.1183.2684.0342.5299.0633.7951.0988.2652.0354.5191.076.7793.1127.2038.0278.4045.0506.607.0785.2684.038.5432.0785.8147.1152.2716.0367.5292.0633.7945.1019.2652.0386.5191.0741.7811.1101l.6065.0817.8147.114c.1988.0265.3975.0512.5957.0778.276.0386.5507.0798.8267.1159.276.036.5298.0633.7944.1019l.7812.1108c.1317.0196.2633.0392.3963.055.0677.0083.0563-.043.0475-.0804-.0893-.3684-.1792-.7349-.2621-1.1033-.1595-.671-.3165-1.3433-.4773-2.0124-.1323-.5533-.2684-1.1059-.4001-1.6592-.1553-.6516-.3091-1.3038-.4615-1.9567-.0062-.0459-.0083-.0923-.0063-.1386zM45.8757 23.3081c-1.2589 8.6433-2.5148 17.269-3.7678 25.8769h.0171c.0829-.3096.1646-.6191.2481-.9287.1549-.5731.3104-1.1464.4666-1.7199.1342-.495.2682-.9905.402-1.4864.1434-.5266.2869-1.0529.4304-1.5787.141-.5162.2811-1.0321.4204-1.5478.1548-.5748.3103-1.1494.4665-1.7237l.4026-1.494c.1523-.5659.3049-1.131.4577-1.6952.1342-.4967.2701-.9937.4076-1.4908.1431-.5311.2836-1.0628.4261-1.5959.2285-.8552.4532-1.7091.6849-2.5656.302-1.1084.6115-2.2156.9135-3.3228.1519-.557.2956-1.116.4475-1.6718.0085-.0208.0104-.0436.0057-.0655-.0047-.0219-.016-.0419-.0323-.0573-.238-.288-.469-.5799-.7045-.8692-.1963-.2399-.3969-.4773-.5932-.7159-.2247-.2766-.4475-.5564-.671-.8337-.1348-.164-.2728-.3241-.4279-.514zM29.1421 20.2815c.1143-.0238.2268-.0555.3368-.0949.6159-.1994 1.2337-.395 1.8509-.5906l1.5528-.4925 2.0599-.6539 1.5826-.5065 2.1168-.6748 2.0396-.6482c.5255-.1665 1.0502-.3317 1.575-.4988.5248-.1671 1.0648-.3393 1.5959-.5134.0361-.0114.0854.0133.1101-.0481-.4614-.195-.9261-.3887-1.3926-.5862-.4033-.1728-.8071-.3513-1.2085-.5241-.4779-.2039-.959-.4027-1.437-.6071-.2108-.0899-.4171-.1899-.6267-.2798-.0291-.0146-.0616-.021-.0941-.0184-.0325.0025-.0636.0139-.0901.0329-.9938.6719-1.99 1.3408-2.9885 2.0067l-2.848 1.9111c-.683.4565-1.3705.9072-2.0478 1.3712-.6774.464-1.3642.9166-2.0485 1.3711-.0147.0131-.0276.028-.0386.0443zM44.0946 15.3858l.026.0221c.0816-.0823.1791-.0108.2715-.0361.9401-.2532 1.8808-.5064 2.8252-.7526.9445-.2463 1.908-.5014 2.8651-.7552.094-.0192.183-.0576.2615-.1127.1101-.0899.1082-.1266-.0102-.1944-.0551-.0314-.1137-.0562-.1747-.074-.5184-.1425-1.035-.2881-1.5528-.4337l-2.1523-.5994c-.69-.1925-1.3838-.3862-2.0776-.5761-.4216-.1152-.8387-.2488-1.266-.3368-.0766-.0164-.0633.007-.0443.0539-.0062.0944-.0022.1893.012.2829.1209.4077.2488.8128.3659 1.2224.1506.5222.3348 1.0356.4595 1.5655v.0462c.0278.0344.044.0767.0463.1209l.0253.119c.0086.0047.0154.0121.0196.0209.0042.0089.0056.0188.0038.0285.0398.1275.072.2573.0962.3887zM28.9717 20.129c.4288-.284.8573-.567 1.2857-.8489l4.5875-3.0563c1.3729-.9136 2.7425-1.8275 4.109-2.7416.0276-.0224.0541-.0463.0792-.0715-.1187.0183-.2334.0566-.3393.1133l-2.2834.8995c-.671.2684-1.3388.5375-2.0105.8059-.847.3342-1.6952.6663-2.5447.9963-.3109.1222-.6185.2488-.9312.3672-.1184.0449-.145.1551-.1963.2456-.2684.4754-.5228.9565-.7843 1.4326l-.8666 1.5882c-.0536.0766-.0962.1604-.1266.2488l.0215.0209zM33.9956 11.0179l7.5387 3.248c-.0843-.1304-.1835-.2507-.2956-.3583-.295-.3462-.5988-.6836-.9008-1.0242-.1424-.1602-.2868-.3165-.4292-.4779-.3057-.3457-.6115-.6932-.9198-1.0388-.1475-.1659-.2981-.3286-.4475-.4951-.2994-.3367-.5957-.676-.8958-1.01281-.0987-.11331-.207-.21966-.3044-.33234-.0488-.05697-.0893-.04747-.145-.01962-.6056.28824-1.2116.57517-1.8181.86087-.4247.1995-.8514.397-1.278.5957l-.1045.0545zM38.512 13.3784c-.2918.0778-.5919.0063-.8863.0633-.0119.0013-.024.0013-.036 0-.3336.0082-.6679.0069-1.0021.0259-.4039.0228-.8059.0342-1.2129.05-.3798.0146-.7596.0323-1.1395.0475-.4114.0165-.8229.0317-1.2363.0488-.3798.0152-.7596.0443-1.1394.0436-.0544 0-.095 0-.1266.0735-.2456.6792-.4577 1.3698-.6913 2.0541-.0633.1792-.1266.3659-.1899.5501-.0101.0304-.05.0634-.0145.0975.0354.0342.0633-.0101.0848-.019.3583-.1392.7166-.2848 1.0761-.4273l2.0017-.7931 1.7775-.6964 1.9478-.7666c.2634-.1019.5248-.2082.7881-.3133l-.0012-.0386zM38.5643 13.1777l-.6602-.2893c-.3393-.1468-.6818-.2905-1.0186-.438-.4684-.2038-.9349-.4127-1.4034-.6178-.5098-.225-1.02-.4491-1.5306-.6723-.045-.0196-.0633 0-.0893.0228-.0899.0899-.1722.1899-.2589.2785-.3323.3501-.6818.6843-1.0065 1.0407-.2855.3165-.6058.5938-.8717.9331.1602.0158.3165-.0177.4729-.0165.4146.0051.828-.0247 1.2426-.0342.238-.005.4754 0 .7166-.017.4716-.0311.9451-.0342 1.4173-.0539.2381-.0107.478.0064.716-.0215.238-.0278.4874 0 .7273-.024.24-.0241.478 0 .7166-.0241.2387-.024.4691-.0127.704-.019.046-.0035.0901-.0204.1266-.0487l-.0007.0012zM37.7944 9.68786c.3419.39814.6818.79884 1.0255 1.19574.233.2691.4723.5375.7046.8065.3241.3798.6451.7597.9692 1.1344.2241.2608.4538.5166.6792.7774.1791.2038.3475.4089.5191.6153.0211.0284.0404.0582.0576.0892.2937-.871.5773-1.7091.8596-2.5422.0159-.0475.007-.0633-.0443-.0893-.6617-.2734-1.3226-.5509-1.9826-.8324-.5014-.2121-1.0008-.4298-1.5022-.6432-.4222-.1791-.8463-.35255-1.266-.52917l-.0197.01773zM43.8755 15.3028c-.3533-1.1806-.7046-2.3504-1.0591-3.5317-.1791.4476-.3127.9046-.4678 1.3496-.138.3957-.2684.7932-.4077 1.1889-.0171.0487-.0088.0677.0342.0899l1.8624.9046c.0127.0006.0254.0002.038-.0013z"/>
    <path d="M37.8111 9.6714c-.0064-.01772-.0235-.02912-.0342-.01519-.0108.01393.0107.02152.0177.03418l.0165-.01899zM28.9513 20.1081c-.0044.001-.0086.003-.012.006-.0035.003-.0061.0068-.0076.0111-.0015.0043-.0019.0088-.0011.0133.0007.0044.0027.0086.0055.012l.0323-.0221-.0171-.0203z"/>
  </g>
  <defs>
    <clipPath id="clip0">
      <path fill="#fff" d="M0 0h31.276v50.6941H0z" transform="translate(19.6235 8.8623)"/>
    </clipPath>
  </defs>
</svg>