<svg fill="none" xmlns="http://www.w3.org/2000/svg" viewBox="0 0 49 50">
  <rect y=".676" width="48.515" height="48.515" rx="24.258" fill="#212121"/>
  <g clip-path="url(#clip0)" fill="#fff" stroke="#fff" stroke-width=".668" stroke-linecap="round" stroke-linejoin="round">
    <path d="M14.15 42.218c.387-.29.784-.567 1.175-.85l1.5-1.08c.546-.395 1.093-.79 1.64-1.182.42-.3.84-.603 1.26-.907.537-.39 1.068-.78 1.61-1.168.384-.277.772-.548 1.157-.824.29-.207.576-.419.866-.63.071-.051.02-.115.013-.167-.03-.228-.074-.454-.113-.68l-.133-.778c-.036-.22-.067-.44-.104-.66-.03-.183-.063-.366-.096-.549-.032-.183-.058-.374-.089-.56l-.114-.674c-.03-.18-.058-.362-.089-.543-.038-.23-.078-.46-.115-.69-.036-.22-.068-.44-.105-.659-.036-.218-.077-.436-.114-.656-.03-.188-.057-.377-.088-.566l-.107-.65c-.032-.184-.063-.367-.096-.55-.04-.233-.078-.465-.116-.699-.036-.219-.068-.44-.104-.658-.036-.218-.078-.437-.114-.656-.032-.189-.058-.375-.09-.562-.036-.222-.074-.44-.111-.664l-.09-.552-.113-.682-.089-.544c-.038-.222-.078-.448-.114-.672-.03-.193-.058-.386-.089-.579-.034-.215-.072-.427-.106-.641a354.93 354.93 0 01-.208-1.224l-.09-.566c-.036-.223-.075-.44-.112-.665l-.089-.552-.114-.681c-.03-.184-.055-.37-.089-.553a1.976 1.976 0 00-.103-.48c-.022.026-.016.028-.038.071a.427.427 0 00-.015.09c-.1.444-.198.894-.298 1.341-.07.315-.144.63-.214.945-.082.373-.16.748-.242 1.122-.075.334-.156.668-.23 1.007-.083.374-.16.749-.243 1.121-.075.336-.155.668-.23 1.007-.083.373-.16.748-.242 1.121-.07.312-.144.623-.211.935-.105.474-.207.95-.312 1.424-.063.285-.134.567-.195.854-.082.373-.161.747-.244 1.12-.063.285-.133.567-.194.854-.083.373-.162.748-.245 1.12l-.213.945c-.082.373-.16.748-.243 1.122-.076.338-.158.674-.234 1.013-.089.389-.168.78-.255 1.168-.105.471-.217.944-.318 1.414-.103.486-.209.97-.318 1.454l-.267 1.207c-.106.47-.205.944-.307 1.417l-.189.845c-.083.374-.164.747-.248 1.12l-.177.788a.01.01 0 00-.008.003c.003.002-.02.027.012.025zM26.264 7.242c.13.065.265.122.403.168.462.187.923.372 1.385.557l1.468.59.509.204c.028.01.056.04.085 0a.078.078 0 000-.106l-.024-.024c-.178-.183-.356-.363-.532-.55-.2-.216-.401-.434-.61-.644-.02-.02-.033-.044-.051-.068a.297.297 0 00-.202-.127h-2.431zM29.366 35.592l.07-.45c.027-.179.055-.354.08-.53.026-.176.045-.35.072-.523l.08-.52.071-.498c.031-.217.058-.435.096-.652.03-.174.047-.349.071-.523.024-.175.054-.347.08-.52.026-.174.047-.332.071-.498.032-.218.059-.435.096-.652.03-.173.048-.35.072-.524.024-.174.053-.346.08-.52.026-.173.047-.332.071-.497.032-.218.059-.436.096-.653.03-.173.048-.349.073-.522.025-.174.053-.348.08-.521l.071-.504c.031-.215.063-.43.097-.644.025-.175.045-.35.072-.523l.08-.521c.026-.174.047-.337.071-.504.024-.166.053-.347.078-.521.02-.136.037-.273.056-.409l.08-.52c.02-.134.036-.267.056-.401l.08-.529.072-.498c.031-.217.057-.435.095-.651.03-.17.048-.344.072-.515.024-.171.054-.353.08-.53l.072-.503.078-.52c.02-.134.037-.268.056-.401l.08-.53c.02-.133.036-.267.055-.4.02-.134.038-.272.064-.406.016-.09.009-.102-.076-.114-.267-.037-.534-.08-.799-.117-.183-.024-.366-.044-.55-.07-.182-.024-.355-.056-.533-.081-.178-.026-.378-.045-.567-.07-.189-.025-.363-.057-.545-.083-.182-.025-.372-.044-.558-.07-.139-.018-.276-.044-.415-.062l-.434-.055c-.145-.018-.278-.038-.417-.058-.14-.02-.289-.04-.433-.063-.145-.024-.288-.041-.433-.063-.145-.021-.289-.038-.434-.057l-.416-.056-.441-.063-.567-.079c-.138-.019-.277-.036-.417-.056-.189-.028-.38-.05-.57-.081-.19-.032-.372-.045-.558-.072-.139-.018-.276-.045-.415-.063l-.417-.056-.58-.08c-.138-.02-.278-.035-.417-.055-.189-.026-.375-.058-.563-.079a.657.657 0 00-.219-.018l.2.462.543 1.218c.126.28.255.56.378.842l.566 1.286c.126.284.255.567.382.851.217.49.432.976.65 1.464.147.331.299.66.445.992.213.478.422.957.63 1.436.126.281.255.56.378.842.212.477.42.957.633 1.436.126.29.267.578.395.871l.567 1.287c.126.281.256.56.378.842l.566 1.286c.13.294.267.586.396.881l.566 1.28c.126.283.255.566.382.85l.567 1.277c.14.308.282.62.428.95zM29.183 35.608l-.342-.77-.503-1.143c-.096-.215-.19-.429-.287-.643-.17-.383-.339-.767-.51-1.15l-.378-.837c-.167-.378-.332-.756-.501-1.137-.123-.276-.248-.551-.371-.828a1076.7 1076.7 0 00-.504-1.144c-.095-.215-.188-.427-.286-.641l-.51-1.151-.377-.837-.5-1.133c-.123-.277-.249-.552-.372-.83l-.503-1.143c-.096-.215-.19-.428-.287-.642a150.14 150.14 0 00-.508-1.15l-.267-.606c-.166-.37-.335-.74-.5-1.113-.172-.388-.341-.778-.513-1.166-.117-.265-.236-.528-.353-.791-.167-.384-.337-.767-.509-1.152a1.003 1.003 0 01-.067-.149c-.004-.013-.007-.047-.032-.038a.058.058 0 00-.045.063l.09.518c.031.19.062.373.095.559l.107.64c.031.19.063.373.096.56l.108.64.095.56c.038.222.076.44.113.664l.107.64c.034.215.074.442.111.657.031.184.063.369.09.552l.111.648c.032.18.064.362.09.543l.105.642.096.558.115.673.105.641c.036.214.077.437.113.656.031.181.06.363.09.544a70.722 70.722 0 00.202 1.2l.107.64.096.56.112.665a118.884 118.884 0 01.212 1.292c.031.19.064.373.096.56.038.215.076.431.112.647l.09.552.104.63a286.395 286.395 0 01.317 1.872l.072.441c0 .01.002.019.006.027a.066.066 0 00.07.036c.35.012.701.004 1.05.02.267.012.539-.008.806.015.268.022.528-.005.79.016.277.023.555-.004.83.018.256.02.511-.004.765.016.28.022.56-.003.84.018.168.007.333-.005.511.011zM30.933 11.793c-.251.082-.5.162-.747.24l-1.558.497-1.15.365-1.549.495-1.534.49-1.486.473-1.15.366-1.157.37c-.012 0-.022.005-.021.026l.296.042c.189.027.382.056.573.082.145.02.29.034.435.053.186.025.371.054.556.08.145.02.29.036.435.055.184.024.366.05.55.075l.44.063.55.073c.142.02.283.041.425.063.196.028.393.057.589.083.189.024.372.045.559.07.186.025.365.053.548.079.143.02.284.036.427.055l.573.081c.19.026.372.045.558.072l.55.077.426.058.573.08.419.055c.194.027.387.056.58.081.195.025.373.044.56.072l.549.078c.092.013.185.027.278.038.048.006.04-.03.034-.056-.063-.26-.126-.517-.185-.776-.112-.472-.222-.945-.335-1.415l-.282-1.167c-.109-.458-.217-.916-.324-1.375a.547.547 0 01-.005-.098zM32.256 17.065l-2.65 18.195h.012l.175-.654.328-1.209.283-1.045a2795.2 2795.2 0 01.598-2.198l.328-1.212.283-1.05a1004.526 1004.526 0 01.608-2.24c.101-.374.2-.748.3-1.123.16-.601.319-1.202.481-1.804.213-.78.43-1.558.643-2.336.107-.392.208-.785.314-1.176a.079.079 0 00-.018-.086c-.168-.203-.33-.408-.496-.611-.138-.169-.279-.336-.417-.503-.158-.195-.314-.392-.471-.587-.095-.115-.192-.228-.301-.361zM20.49 14.937c.08-.017.16-.04.237-.067.433-.14.867-.278 1.302-.415l1.091-.347 1.449-.46 1.112-.355 1.489-.475 1.434-.456 1.107-.35c.37-.118.749-.239 1.122-.361.026-.008.06.01.078-.034l-.98-.412-.85-.369c-.335-.143-.673-.283-1.01-.427-.148-.063-.293-.133-.44-.196a.125.125 0 00-.13.01c-.698.472-1.399.943-2.1 1.41l-2.003 1.345c-.48.32-.964.637-1.44.964-.476.326-.96.644-1.44.964-.01.009-.02.02-.028.03zM31.004 11.495l.018.015c.057-.058.126-.008.19-.025a259.14 259.14 0 011.987-.53 489.88 489.88 0 002.015-.53.488.488 0 00.184-.08c.077-.063.076-.089-.008-.136a.57.57 0 00-.122-.052c-.365-.1-.728-.203-1.092-.305l-1.514-.422c-.485-.135-.973-.271-1.46-.405-.297-.08-.59-.175-.89-.237-.054-.011-.045.005-.032.038a.926.926 0 00.009.2c.085.286.175.57.257.859.106.367.236.728.323 1.1v.033c.02.024.031.054.033.085l.017.084a.033.033 0 01.017.034c.028.09.05.181.068.274zM20.37 14.83c.302-.2.603-.399.905-.597l3.225-2.15c.965-.642 1.928-1.284 2.89-1.927a.678.678 0 00.055-.05.748.748 0 00-.239.08l-1.605.632-1.414.567c-.595.235-1.192.468-1.789.7-.218.086-.435.175-.655.258-.083.032-.102.11-.138.173-.188.334-.367.673-.551 1.007l-.61 1.117a.704.704 0 00-.088.175l.015.015zM23.903 8.423l5.3 2.284a1.41 1.41 0 00-.207-.252c-.208-.243-.421-.48-.634-.72l-.301-.336c-.215-.243-.43-.487-.647-.73-.104-.117-.21-.231-.315-.348-.21-.237-.419-.476-.63-.713-.07-.08-.145-.154-.214-.233-.034-.04-.063-.034-.102-.014-.426.203-.852.404-1.278.605l-.899.419-.073.038zM27.078 10.083c-.205.055-.416.005-.623.045a.108.108 0 01-.025 0c-.235.005-.47.005-.705.018-.284.016-.566.024-.853.035-.267.01-.534.023-.8.033l-.87.035c-.267.01-.534.03-.801.03-.038 0-.067 0-.09.052-.172.478-.321.963-.485 1.444-.045.126-.09.258-.134.387-.007.021-.035.045-.01.069.025.024.045-.007.06-.014.252-.098.503-.2.756-.3l1.408-.558 1.25-.49 1.37-.538c.184-.072.368-.147.553-.22v-.028zM27.115 9.942l-.464-.203c-.238-.104-.48-.205-.716-.308-.33-.144-.657-.29-.987-.435a346.12 346.12 0 00-1.076-.472c-.032-.014-.044 0-.063.016-.063.063-.12.133-.182.195-.233.247-.48.482-.707.732-.201.223-.426.418-.613.656.112.011.222-.012.332-.011.292.003.582-.018.874-.024.167-.004.334 0 .504-.012.331-.022.664-.024.996-.038.168-.008.336.004.504-.015.167-.02.342 0 .511-.017.169-.017.336 0 .504-.017.168-.017.33-.01.495-.014a.166.166 0 00.089-.034v.001zM26.574 7.488l.72.841c.165.19.333.378.496.567.228.267.454.534.682.798.157.183.319.363.477.546.126.144.245.288.365.433.015.02.029.04.04.063l.605-1.788c.011-.033.005-.044-.031-.063-.465-.192-.93-.387-1.394-.585-.353-.149-.704-.302-1.056-.452-.297-.126-.595-.248-.89-.372l-.014.012zM30.85 11.436l-.745-2.483c-.126.315-.22.636-.33.949-.096.278-.188.558-.286.836-.012.034-.006.048.024.063l1.31.636a.17.17 0 00.026 0z"/>
    <path d="M26.586 7.477c-.005-.013-.017-.02-.024-.011-.008.01.007.015.012.024l.012-.013zM20.357 14.815a.02.02 0 00-.014.012.018.018 0 000 .01c0 .003.001.006.003.008l.023-.016-.012-.014z"/>
  </g>
  <defs>
    <clipPath id="clip0">
      <path fill="#fff" transform="translate(13.798 6.908)" d="M0 0h21.991v35.644H0z"/>
    </clipPath>
  </defs>
</svg>
